<?xml version="1.0" encoding="utf-8"?>
<!-- Generator: Adobe Illustrator 24.1.0, SVG Export Plug-In . SVG Version: 6.00 Build 0)  -->
<svg version="1.1" id="Capa_1" xmlns="http://www.w3.org/2000/svg" xmlns:xlink="http://www.w3.org/1999/xlink" x="0px" y="0px"
	 viewBox="0 0 871 259" style="enable-background:new 0 0 871 259;" xml:space="preserve">
<style type="text/css">
	.st0{fill-rule:evenodd;clip-rule:evenodd;fill:#FFFFFF;}
	.st1{fill-rule:evenodd;clip-rule:evenodd;fill:#FFFFFF;}
</style>
<polygon class="st0" points="571.9,174 571.9,61.8 654.4,61.8 654.4,81.4 594.7,81.4 594.7,110.3 714.9,110.3 714.9,130 594.7,130
	594.7,154 654.4,154 654.4,174 "/>
<rect x="197.7" y="42.7" class="st0" width="19.3" height="19.3"/>
<path class="st0" d="M37.9,193.4h57.4V79.8c0-6,1.5-10.5,4.5-13.4c3-2.9,7.4-4.4,13.5-4.4h27.1V11.2h-35.2
	c-22.9,0-39.8,5.3-50.8,15.8C43.4,37.5,37.9,53.8,37.9,75.8v12.1H14V127h23.9V193.4z"/>
<path class="st1" d="M140.3,146.3v10.6v18.7c0,6-1.5,10.5-4.5,13.4c-3,2.9-7.4,4.4-13.5,4.4H95.3v50.8h35.2
	c22.9,0,39.8-5.3,50.8-15.8c10.9-10.5,16.4-26.8,16.4-48.8v-24.6v-8.7V62h-42.2v25.9h25.9v25.9h-25.9V87.9h-39.1V127h23.9V146.3z"/>
<polygon class="st0" points="282.7,130 282.7,174 259.2,174 259.2,61.8 339.1,61.8 339.1,81.4 282.7,81.4 282.7,110.3 332,110.3
	332,130 "/>
<rect x="346" y="61.8" class="st0" width="23.5" height="112.2"/>
<polygon class="st0" points="445.5,174 397.5,98.6 397.5,174 375.7,174 375.7,61.8 400.6,61.8 445.2,133.9 445.2,61.8 467.1,61.8
	467.1,174 "/>
<polygon class="st0" points="508.3,174 470.3,61.8 495.3,61.8 519.8,140.5 544.1,61.8 568.4,61.8 530.4,174 "/>
<path class="st0" d="M682.7,81.2v20.6h-22.8V61.8h56.9c5.2,0,9.9,0.8,14.1,2.4c4.2,1.6,7.9,3.9,10.9,6.8c3,2.9,5.4,6.3,7,10.3
	c1.6,4,2.4,8.3,2.4,12.9c0,6.1-1.4,11.5-4.3,16.1c-2.9,4.7-7,8-12.4,9.9c5,1.6,8.5,4,10.6,7.3c2.1,3.3,3.1,8.2,3.1,14.7V174h-23
	v-28.9c0-5.4-1.2-9.3-3.7-11.6c-2.5-2.3-7.1-3.5-13.9-3.5h-25V174h-22.8v-63.7h22.8h7.9h21.5c6.3,0,10.8-1.4,13.3-4.2
	c2.6-2.8,3.9-5.5,3.9-9.8c0-4.4-1.3-8-3.8-10.8c-2.5-2.8-6.7-4.2-12.6-4.2H682.7z"/>
<path class="st0" d="M778.4,81.2v21.5h-22.8V61.8h56.9c5.2,0,9.9,0.8,14.1,2.4c4.2,1.6,7.9,3.9,10.9,6.8c3,2.9,5.4,6.3,7,10.3
	c1.6,4,2.4,8.3,2.4,12.9c0,6.1-1.4,11.5-4.3,16.1c-2.9,4.7-7,8-12.4,9.9c5,1.6,8.5,4,10.6,7.3c2.1,3.3,3.1,8.2,3.1,14.7V174h-23
	v-28.9c0-5.4-1.2-9.3-3.7-11.6c-2.5-2.3-7.1-3.5-13.9-3.5h-25V174h-22.8v-62.8h22.8h29.4c6.3,0,10.8-1.4,13.3-4.2
	c2.6-2.8,3.9-6.4,3.9-10.6c0-4.4-1.3-8-3.8-10.8c-2.5-2.8-6.7-4.2-12.6-4.2H778.4z"/>
<path class="st1" d="M259,220.9v-27.3h5.7v27.3H259L259,220.9z M293.1,220.9l-11.7-18.4v18.4h-5.3v-27.3h6.1l10.9,17.6v-17.6h5.4
	v27.3H293.1L293.1,220.9z M318.3,220.9l-9.3-27.3h6.1l6,19.2l5.9-19.2h5.9l-9.3,27.3H318.3L318.3,220.9z M343.7,220.9v-27.3h5.7
	v27.3H343.7L343.7,220.9z M360.9,220.9v-27.3H381v4.8h-14.5v5.8h13.4v4.8h-13.4v7h15.2v4.9H360.9L360.9,220.9z M397.8,198.2v7.3h7.2
	c1.5,0,2.6-0.3,3.3-1c0.6-0.7,0.9-1.6,0.9-2.6c0-1.1-0.3-1.9-0.9-2.6c-0.6-0.7-1.6-1-3.1-1H397.8L397.8,198.2z M408.2,220.9v-7
	c0-1.3-0.3-2.3-0.9-2.8c-0.6-0.6-1.7-0.8-3.4-0.8h-6.1v10.7h-5.6v-27.3h13.9c1.3,0,2.4,0.2,3.4,0.6c1,0.4,1.9,0.9,2.7,1.6
	c0.7,0.7,1.3,1.5,1.7,2.5c0.4,1,0.6,2,0.6,3.2c0,1.5-0.3,2.8-1,3.9c-0.7,1.1-1.7,1.9-3,2.4c1.2,0.4,2.1,1,2.6,1.8
	c0.5,0.8,0.8,2,0.8,3.6v7.7H408.2L408.2,220.9z M432.9,220.9v-22.6h-8.2v-4.8h22.2v4.8h-8.3v22.6H432.9L432.9,220.9z M457.7,220.9
	v-27.3h20.1v4.8h-14.5v5.8h13.4v4.8h-13.4v7h15.2v4.9H457.7L457.7,220.9z M530,206.3c1.6,0,2.8-0.4,3.6-1.1c0.7-0.8,1.1-1.7,1.1-2.9
	c0-1.2-0.4-2.1-1.1-2.8c-0.7-0.7-1.9-1.1-3.6-1.1h-5.4v8H530L530,206.3z M518.9,220.9v-27.3h12.1c1.3,0,2.6,0.2,3.6,0.7
	c1.1,0.5,2,1.1,2.8,1.9c0.8,0.8,1.4,1.7,1.8,2.8c0.4,1.1,0.6,2.2,0.6,3.5c0,1.2-0.2,2.4-0.6,3.4c-0.4,1.1-1,2-1.8,2.7
	c-0.8,0.8-1.7,1.3-2.8,1.8c-1.1,0.4-2.3,0.6-3.6,0.6h-6.3v9.9H518.9L518.9,220.9z M557.8,199.6L557.8,199.6l-3.5,10.9h7L557.8,199.6
	L557.8,199.6z M564.6,220.9l-1.7-5.6h-10.1l-1.9,5.6h-6.1l9.8-27.3h6.6l9.6,27.3H564.6L564.6,220.9z M587.1,198.2v7.3h7.2
	c1.5,0,2.6-0.3,3.3-1c0.6-0.7,0.9-1.6,0.9-2.6c0-1.1-0.3-1.9-0.9-2.6c-0.6-0.7-1.6-1-3.1-1H587.1L587.1,198.2z M597.5,220.9v-7
	c0-1.3-0.3-2.3-0.9-2.8c-0.6-0.6-1.7-0.8-3.4-0.8h-6.1v10.7h-5.6v-27.3h13.9c1.3,0,2.4,0.2,3.4,0.6c1,0.4,1.9,0.9,2.7,1.6
	c0.7,0.7,1.3,1.5,1.7,2.5c0.4,1,0.6,2,0.6,3.2c0,1.5-0.3,2.8-1.1,3.9c-0.7,1.1-1.7,1.9-3,2.4c1.2,0.4,2.1,1,2.6,1.8
	c0.5,0.8,0.8,2,0.8,3.6v7.7H597.5L597.5,220.9z M627,199.6L627,199.6l-3.5,10.9h7L627,199.6L627,199.6z M633.7,220.9l-1.7-5.6h-10.1
	l-1.9,5.6h-6.1l9.8-27.3h6.6l9.6,27.3H633.7L633.7,220.9z M700.8,220.9l-0.1-2.7c-0.7,1.2-1.7,2.1-3.2,2.7c-1.5,0.6-3.1,1-5,1
	c-1.9,0-3.6-0.4-5.1-1.2c-1.5-0.8-2.8-1.9-3.9-3.3c-1.1-1.4-1.9-2.9-2.5-4.7c-0.6-1.8-0.9-3.6-0.9-5.5c0-2,0.3-3.9,0.9-5.7
	c0.6-1.8,1.4-3.3,2.6-4.6c1.1-1.3,2.5-2.4,4.2-3.1c1.7-0.8,3.6-1.1,5.8-1.1c1.6,0,3.1,0.2,4.6,0.7c1.4,0.5,2.6,1.1,3.7,1.9
	c1.1,0.8,1.9,1.8,2.6,2.9c0.6,1.1,1,2.4,1.1,3.8h-5.8c-0.1-0.6-0.3-1.2-0.7-1.8c-0.4-0.6-0.8-1-1.4-1.5c-0.5-0.4-1.2-0.7-1.9-1
	c-0.7-0.2-1.5-0.4-2.2-0.4c-2.3,0-4.2,0.9-5.5,2.6c-1.4,1.7-2.1,4.2-2.1,7.5c0,1.1,0.1,2.3,0.4,3.4c0.3,1.1,0.7,2.2,1.4,3.1
	c0.6,0.9,1.4,1.7,2.4,2.2c1,0.6,2.1,0.9,3.4,0.9c0.9,0,1.8-0.2,2.6-0.5c0.8-0.3,1.5-0.8,2.1-1.4c0.6-0.6,1.1-1.2,1.4-2
	c0.3-0.8,0.5-1.6,0.5-2.4h-6.1v-4.6h11.4v14.7H700.8L700.8,220.9z M729.2,199.6L729.2,199.6l-3.5,10.9h7L729.2,199.6L729.2,199.6z
	 M736,220.9l-1.7-5.6h-10.1l-1.9,5.6h-6.1l9.8-27.3h6.6l9.6,27.3H736L736,220.9z M769.9,220.9l-11.7-18.4v18.4h-5.3v-27.3h6.1
	l10.9,17.6v-17.6h5.4v27.3H769.9L769.9,220.9z M798.9,199.6L798.9,199.6l-3.5,10.9h7L798.9,199.6L798.9,199.6z M805.7,220.9
	l-1.7-5.6h-10.1l-1.9,5.6h-6.1l9.8-27.3h6.6l9.6,27.3H805.7L805.7,220.9z M828.2,198.2v7.3h7.2c1.5,0,2.6-0.3,3.3-1
	c0.6-0.7,0.9-1.6,0.9-2.6c0-1.1-0.3-1.9-0.9-2.6c-0.6-0.7-1.6-1-3.1-1H828.2L828.2,198.2z M838.6,220.9v-7c0-1.3-0.3-2.3-0.9-2.8
	c-0.6-0.6-1.7-0.8-3.4-0.8h-6.1v10.7h-5.6v-27.3h13.9c1.3,0,2.4,0.2,3.4,0.6c1,0.4,1.9,0.9,2.7,1.6c0.7,0.7,1.3,1.5,1.7,2.5
	c0.4,1,0.6,2,0.6,3.2c0,1.5-0.3,2.8-1,3.9c-0.7,1.1-1.7,1.9-3,2.4c1.2,0.4,2.1,1,2.6,1.8c0.5,0.8,0.8,2,0.8,3.6v7.7H838.6z"/>
</svg>
