<?xml version="1.0" encoding="utf-8"?>
<!-- Generator: Adobe Illustrator 23.0.2, SVG Export Plug-In . SVG Version: 6.00 Build 0)  -->
<svg version="1.1" id="Capa_1" xmlns="http://www.w3.org/2000/svg" xmlns:xlink="http://www.w3.org/1999/xlink" x="0px" y="0px"
	 viewBox="0 0 760 232" style="enable-background:new 0 0 760 232;" xml:space="preserve">
<style type="text/css">
	.st0{fill:#FFFFFF;}
</style>
<g>
	<g>
		<path class="st0" d="M33.49,123.51c0.99,7.66,3.02,15.19,6.01,22.24c2.32,5.48,5.27,10.66,8.73,15.46V63.75
			C40.61,74.78,35.66,87.3,33.7,100.42C32.53,108.15,32.44,115.85,33.49,123.51z"/>
		<path class="st0" d="M111.46,5.08C49.91,5.08,0,54.98,0,116.54c0,61.52,49.91,111.42,111.46,111.42
			c61.52,0,111.44-49.9,111.44-111.42C222.91,54.98,172.99,5.08,111.46,5.08z M137.42,68.91h26.65v-18.1h29.36v88.9l-2.7,1.66V53.51
			h-23.96v15.4v87.21l-2.7,1.66V71.61h-23.96v31.3h-2.7V68.91z M140.04,105.56v21.08h-20.49v-21.08H140.04z M183.04,171.86
			c-1.72,2.61-3.63,5.12-5.68,7.5c-2.85,3.3-6.13,6.41-9.41,9.14c-3.32,2.82-6.85,5.48-10.55,7.92c-7.38,4.9-15.52,8.86-24.16,11.53
			c-8.66,2.57-17.81,3.91-26.92,3.59c-18.21-0.62-36.06-6.87-50.64-17.53c-7.31-5.29-14-11.48-19.57-18.64
			c-5.52-7.18-10.09-15.1-13.32-23.51c-3.27-8.39-5.35-17.18-6.24-26.07c-0.88-8.91-0.37-18.02,1.32-26.71
			c1.69-8.71,4.45-17.24,8.47-25.15c3.95-7.91,9.18-15.29,14.94-21.71c11.6-13.08,27.26-23.09,44.41-26.61
			c11.41-2.48,23.2-2.29,34.37,0.21c0.11,0,0.22,0,0.34,0.02c0.63,0.12,1.33,0.29,2.05,0.48c0,0.01-0.01,0.98-0.02,2.52l-0.04,7.11
			l0.06,15.36H76.3v53.85h36.24v25.52H76.3v55.47c9.51,5.79,18.97,9.71,30.7,10.47c4.21,0.27,8.43,0.14,12.63-0.31v-66.83h17.8h2.7
			v61.75c3.71-1.47,7.34-3.21,10.85-5.23c4.54-2.57,8.9-5.66,13.11-8.93v-12.68l2.7,1.46v9.1c1.14-0.92,2.29-1.85,3.41-2.78
			c1.73-1.45,3.42-2.95,5.1-4.48l-12.04-6.5l15.1-9.29l15.1-9.29l0.5,17.72l0.5,17.72L183.04,171.86z"/>
	</g>
	<g>
		<g>
			<path class="st0" d="M247.17,48.94h51.14v12.22H260.9v26.77h37.41v12.22H260.9v44.69h-13.73V48.94z"/>
			<path class="st0" d="M311.03,48.94h13.73v95.9h-13.73V48.94z"/>
			<path class="st0" d="M420.13,48.94h13.04v95.9h-11.81l-64.11-73.86v73.86h-12.91v-95.9h11.12l64.66,74.48V48.94z"/>
			<path class="st0" d="M512.32,48.94H526l-40.54,96.31h-3.11l-41.33-96.31h13.82l28.84,67.34L512.32,48.94z"/>
			<path class="st0" d="M534.39,48.94h54.37v12.22h-40.64V90.4h39.27v12.29h-39.27v29.79h41.94v12.22h-55.67V48.94z"/>
			<path class="st0" d="M602.99,144.84v-95.9h24.03c9.7,0,17.4,2.4,23.1,7.21c5.7,4.81,8.55,11.3,8.55,19.5
				c0,5.58-1.4,10.41-4.19,14.48c-2.79,4.07-6.8,7.12-12.01,9.13c3.07,2.01,6.06,4.76,8.99,8.24c2.93,3.48,7.05,9.54,12.36,18.19
				c3.34,5.45,6.02,9.54,8.03,12.29l5.08,6.86h-16.34l-4.18-6.32c-0.14-0.23-0.41-0.62-0.82-1.17l-2.67-3.78l-4.25-7.01l-4.59-7.49
				c-2.83-3.94-5.43-7.07-7.79-9.4c-2.36-2.33-4.49-4.01-6.39-5.04c-1.9-1.03-5.1-1.54-9.59-1.54h-3.57v41.74H602.99z M620.83,60.61
				h-4.12v30.27h5.22c6.96,0,11.73-0.59,14.31-1.78c2.58-1.19,4.6-2.99,6.04-5.39c1.44-2.4,2.16-5.14,2.16-8.2
				c0-3.02-0.8-5.75-2.4-8.2c-1.6-2.45-3.86-4.18-6.76-5.18C632.38,61.11,627.56,60.61,620.83,60.61z"/>
			<path class="st0" d="M685.79,144.84v-95.9h24.03c9.7,0,17.4,2.4,23.1,7.21c5.7,4.81,8.55,11.3,8.55,19.5
				c0,5.58-1.4,10.41-4.19,14.48c-2.79,4.07-6.8,7.12-12.01,9.13c3.07,2.01,6.06,4.76,8.99,8.24c2.93,3.48,7.05,9.54,12.36,18.19
				c3.34,5.45,6.02,9.54,8.03,12.29l5.08,6.86h-16.34l-4.18-6.32c-0.14-0.23-0.41-0.62-0.82-1.17l-2.67-3.78l-4.25-7.01l-4.59-7.49
				c-2.83-3.94-5.43-7.07-7.79-9.4c-2.36-2.33-4.49-4.01-6.39-5.04c-1.9-1.03-5.1-1.54-9.59-1.54h-3.57v41.74H685.79z M703.64,60.61
				h-4.12v30.27h5.22c6.96,0,11.73-0.59,14.31-1.78c2.58-1.19,4.6-2.99,6.04-5.39c1.44-2.4,2.16-5.14,2.16-8.2
				c0-3.02-0.8-5.75-2.4-8.2c-1.6-2.45-3.86-4.18-6.76-5.18C715.18,61.11,710.37,60.61,703.64,60.61z"/>
		</g>
		<g>
			<path class="st0" d="M287.77,158.84v24.94h-1.93v-24.94H287.77z"/>
			<path class="st0" d="M319.58,158.84v24.94h-1.59l-18.96-21.8v21.8h-1.93v-24.94h1.63l18.92,21.8v-21.8H319.58z"/>
			<path class="st0" d="M347.72,158.84l-10.45,25.19h-0.57l-10.49-25.19h1.95l8.84,21.1l8.78-21.1H347.72z"/>
			<path class="st0" d="M356.26,158.84v24.94h-1.93v-24.94H356.26z"/>
			<path class="st0" d="M379.27,158.84v1.61H367.6v9.98h11.37v1.62H367.6v10.12h11.96v1.61h-13.89v-24.94H379.27z"/>
			<path class="st0" d="M387.22,158.84h6.39c2.68,0,4.72,0.58,6.14,1.74c1.42,1.16,2.12,2.73,2.12,4.7c0,2.88-1.58,4.9-4.75,6.07
				c0.82,0.39,1.93,1.66,3.32,3.8l5.64,8.62h-2.28l-4.34-6.84c-1.45-2.29-2.58-3.71-3.39-4.28c-0.81-0.57-1.99-0.85-3.55-0.85h-3.37
				v11.96h-1.93V158.84z M389.14,160.45v9.77h4.14c2.11,0,3.72-0.43,4.83-1.28c1.11-0.85,1.67-2.06,1.67-3.62
				c0-1.54-0.57-2.73-1.7-3.59c-1.13-0.86-2.76-1.29-4.87-1.29H389.14z"/>
			<path class="st0" d="M428.65,158.84v1.61h-9.36v23.34h-1.95v-23.34h-9.36v-1.61H428.65z"/>
			<path class="st0" d="M449,158.84v1.61h-11.68v9.98h11.37v1.62h-11.37v10.12h11.96v1.61H435.4v-24.94H449z"/>
			<path class="st0" d="M470.72,158.84h6.87c2.63,0,4.64,0.59,6.04,1.77c1.4,1.18,2.1,2.78,2.1,4.82c0,2.06-0.71,3.69-2.12,4.89
				c-1.41,1.2-3.48,1.8-6.2,1.8h-4.77v11.66h-1.93V158.84z M472.65,160.45v10.07h4.64c2.08,0,3.67-0.44,4.75-1.32
				c1.08-0.88,1.62-2.12,1.62-3.73c0-1.54-0.53-2.76-1.59-3.66c-1.06-0.9-2.58-1.36-4.55-1.36H472.65z"/>
			<path class="st0" d="M499.61,158.66l11.53,25.12h-2.02l-3.95-8.62h-12.2l-3.93,8.62h-2.02l11.53-25.12H499.61z M504.44,173.55
				l-5.37-11.75l-5.36,11.75H504.44z"/>
			<path class="st0" d="M517.81,158.84h6.39c2.68,0,4.73,0.58,6.14,1.74c1.42,1.16,2.12,2.73,2.12,4.7c0,2.88-1.58,4.9-4.75,6.07
				c0.82,0.39,1.93,1.66,3.32,3.8l5.64,8.62h-2.28l-4.35-6.84c-1.45-2.29-2.58-3.71-3.39-4.28c-0.81-0.57-1.99-0.85-3.55-0.85h-3.37
				v11.96h-1.93V158.84z M519.74,160.45v9.77h4.14c2.11,0,3.72-0.43,4.83-1.28c1.11-0.85,1.67-2.06,1.67-3.62
				c0-1.54-0.57-2.73-1.7-3.59c-1.13-0.86-2.76-1.29-4.87-1.29H519.74z"/>
			<path class="st0" d="M552.27,158.66l11.53,25.12h-2.02l-3.95-8.62h-12.2l-3.93,8.62h-2.02l11.53-25.12H552.27z M557.1,173.55
				l-5.37-11.75l-5.36,11.75H557.1z"/>
			<path class="st0" d="M605.16,160.64v2.18c-2.95-1.68-5.9-2.52-8.84-2.52c-3.15,0-5.78,1.05-7.87,3.14
				c-2.09,2.09-3.14,4.72-3.14,7.87s1.04,5.78,3.11,7.86c2.07,2.09,4.89,3.13,8.45,3.13c2.57,0,4.85-0.51,6.84-1.54v-6.73h-5.27
				v-1.61h7.21V182c-2.94,1.4-5.89,2.11-8.86,2.11c-3.87,0-7.1-1.23-9.69-3.68c-2.59-2.45-3.88-5.51-3.88-9.18
				c0-3.64,1.27-6.67,3.81-9.1c2.54-2.42,5.73-3.63,9.58-3.63C599.23,158.52,602.08,159.23,605.16,160.64z"/>
			<path class="st0" d="M624.08,158.66l11.53,25.12h-2.02l-3.95-8.62h-12.2l-3.93,8.62h-2.02l11.53-25.12H624.08z M628.91,173.55
				l-5.37-11.75l-5.36,11.75H628.91z"/>
			<path class="st0" d="M664.73,158.84v24.94h-1.59l-18.96-21.8v21.8h-1.93v-24.94h1.63l18.92,21.8v-21.8H664.73z"/>
			<path class="st0" d="M683.98,158.66l11.53,25.12h-2.02l-3.95-8.62h-12.2l-3.93,8.62h-2.02l11.53-25.12H683.98z M688.81,173.55
				l-5.37-11.75l-5.36,11.75H688.81z"/>
			<path class="st0" d="M702.18,158.84h6.39c2.68,0,4.73,0.58,6.14,1.74c1.42,1.16,2.12,2.73,2.12,4.7c0,2.88-1.58,4.9-4.75,6.07
				c0.82,0.39,1.93,1.66,3.32,3.8l5.64,8.62h-2.28l-4.35-6.84c-1.45-2.29-2.58-3.71-3.39-4.28c-0.81-0.57-1.99-0.85-3.55-0.85h-3.37
				v11.96h-1.93V158.84z M704.11,160.45v9.77h4.14c2.11,0,3.72-0.43,4.83-1.28c1.11-0.85,1.67-2.06,1.67-3.62
				c0-1.54-0.57-2.73-1.7-3.59c-1.13-0.86-2.76-1.29-4.87-1.29H704.11z"/>
		</g>
	</g>
</g>
</svg>
